<?xml version="1.0" encoding="UTF-8"?>
<svg xmlns="http://www.w3.org/2000/svg" xmlns:xlink="http://www.w3.org/1999/xlink" width="375pt" height="374.999991pt" viewBox="0 0 375 374.999991" version="1.2">
<defs>
<clipPath id="clip1">
  <path d="M 78.375 64 L 296.625 64 L 296.625 337.5 L 78.375 337.5 Z M 78.375 64 "/>
</clipPath>
<clipPath id="clip2">
  <path d="M 160 37.5 L 215 37.5 L 215 93 L 160 93 Z M 160 37.5 "/>
</clipPath>
</defs>
<g id="surface1">
<g clip-path="url(#clip1)" clip-rule="nonzero">
<path style=" stroke:none;fill-rule:nonzero;fill:rgb(42.749023%,29.798889%,25.489807%);fill-opacity:1;" d="M 269.316406 64.773438 L 201.136719 64.773438 C 201.136719 72.308594 195.035156 78.410156 187.5 78.410156 C 179.964844 78.410156 173.863281 72.308594 173.863281 64.773438 L 105.683594 64.773438 C 90.605469 64.773438 78.410156 76.96875 78.410156 92.046875 L 78.410156 310.226562 C 78.410156 325.300781 90.605469 337.5 105.683594 337.5 L 269.316406 337.5 C 284.394531 337.5 296.589844 325.300781 296.589844 310.226562 L 296.589844 92.046875 C 296.589844 76.96875 284.394531 64.773438 269.316406 64.773438 "/>
</g>
<path style=" stroke:none;fill-rule:nonzero;fill:rgb(100%,100%,100%);fill-opacity:1;" d="M 269.316406 317.046875 L 105.683594 317.046875 C 101.925781 317.046875 98.863281 313.984375 98.863281 310.226562 L 98.863281 92.046875 C 98.863281 88.289062 101.925781 85.226562 105.683594 85.226562 L 269.316406 85.226562 C 273.074219 85.226562 276.136719 88.289062 276.136719 92.046875 L 276.136719 310.226562 C 276.136719 313.984375 273.074219 317.046875 269.316406 317.046875 "/>
<path style=" stroke:none;fill-rule:nonzero;fill:rgb(56.469727%,64.309692%,68.238831%);fill-opacity:1;" d="M 201.136719 64.773438 C 201.136719 72.308594 195.035156 78.410156 187.5 78.410156 C 179.964844 78.410156 173.863281 72.308594 173.863281 64.773438 L 126.136719 64.773438 L 126.136719 92.046875 C 126.136719 99.578125 132.238281 105.683594 139.773438 105.683594 L 235.226562 105.683594 C 242.761719 105.683594 248.863281 99.578125 248.863281 92.046875 L 248.863281 64.773438 Z M 201.136719 64.773438 "/>
<g clip-path="url(#clip2)" clip-rule="nonzero">
<path style=" stroke:none;fill-rule:nonzero;fill:rgb(56.469727%,64.309692%,68.238831%);fill-opacity:1;" d="M 187.5 37.5 C 172.453125 37.5 160.226562 49.726562 160.226562 64.773438 C 160.226562 79.820312 172.453125 92.046875 187.5 92.046875 C 202.546875 92.046875 214.773438 79.820312 214.773438 64.773438 C 214.773438 49.726562 202.546875 37.5 187.5 37.5 M 187.5 78.410156 C 179.964844 78.410156 173.863281 72.308594 173.863281 64.773438 C 173.863281 57.238281 179.964844 51.136719 187.5 51.136719 C 195.035156 51.136719 201.136719 57.238281 201.136719 64.773438 C 201.136719 72.308594 195.035156 78.410156 187.5 78.410156 "/>
</g>
<path style=" stroke:none;fill-rule:nonzero;fill:rgb(89.7995%,45.098877%,45.098877%);fill-opacity:1;" d="M 234.257812 148.785156 L 253.480469 168.011719 C 256.410156 170.9375 256.410156 175.691406 253.480469 178.617188 L 244.425781 187.671875 L 214.59375 157.835938 L 223.648438 148.785156 C 226.582031 145.863281 231.328125 145.863281 234.257812 148.785156 "/>
<path style=" stroke:none;fill-rule:nonzero;fill:rgb(100%,59.609985%,0%);fill-opacity:1;" d="M 129.335938 243.089844 L 159.171875 272.925781 L 229.5 202.59375 L 199.664062 172.757812 Z M 129.335938 243.089844 "/>
<path style=" stroke:none;fill-rule:nonzero;fill:rgb(69.018555%,74.508667%,77.249146%);fill-opacity:1;" d="M 199.65625 172.746094 L 229.488281 202.59375 L 244.40625 187.683594 L 214.574219 157.835938 Z M 199.65625 172.746094 "/>
<path style=" stroke:none;fill-rule:nonzero;fill:rgb(100%,75.689697%,2.749634%);fill-opacity:1;" d="M 159.191406 272.910156 L 119.316406 282.953125 L 129.355469 243.082031 Z M 159.191406 272.910156 "/>
<path style=" stroke:none;fill-rule:nonzero;fill:rgb(21.569824%,27.839661%,30.979919%);fill-opacity:1;" d="M 139.472656 277.882812 L 119.316406 282.953125 L 124.390625 262.800781 Z M 139.472656 277.882812 "/>
</g>
</svg>
